<svg xmlns="http://www.w3.org/2000/svg" width="16.892" height="16.892" viewBox="0 0 16.892 16.892"><path d="M11.86,0H5.032A5.038,5.038,0,0,0,0,5.032V11.86a5.038,5.038,0,0,0,5.032,5.032H11.86a5.038,5.038,0,0,0,5.032-5.032V5.032A5.038,5.038,0,0,0,11.86,0Zm3.333,11.86a3.333,3.333,0,0,1-3.333,3.333H5.032A3.333,3.333,0,0,1,1.7,11.86V5.032A3.333,3.333,0,0,1,5.032,1.7H11.86a3.333,3.333,0,0,1,3.333,3.333V11.86Z"/><path d="M137.369,133a4.369,4.369,0,1,0,4.369,4.369A4.374,4.374,0,0,0,137.369,133Zm0,7.038a2.67,2.67,0,1,1,2.67-2.67A2.669,2.669,0,0,1,137.369,140.038Z" transform="translate(-128.923 -128.923)"/><circle cx="1.047" cy="1.047" r="1.047" transform="translate(11.776 3.063)"/></svg>