<svg xmlns="http://www.w3.org/2000/svg" width="13.463" height="12.765" viewBox="0 0 13.463 12.765"><path d="M18.66,21.029A1.521,1.521,0,1,0,17,19.515a1.591,1.591,0,0,0,1.66,1.514" transform="translate(-17 -18)" fill-rule="evenodd"/><path d="M18,37.584h2.976V29H18Z" transform="translate(-17.62 -24.818)" fill-rule="evenodd"/><path d="M31.971,32.19c0-.984.466-1.947,1.579-1.947s1.387.963,1.387,1.923v4.688H37.9v-4.88c0-3.39-2-3.975-3.237-3.975a3.013,3.013,0,0,0-2.693,1.426V28.271H29v8.584h2.971Z" transform="translate(-24.438 -24.198)" fill-rule="evenodd"/></svg>